Coordinates
version=1
nRows=60
nColumns=12
inDegrees=yes

Units are S.I. units (second, meters, Newtons, ...)
Angles are in degrees

endheader
time	SC_y	SC_z	SC_x	AC_y	AC_z	AC_x	GH_y	GH_z	GH_yy	EL_x	PS_y
       0.0               -20.4         -2.663          12.89          32.31         -8.771         -2.872          88.57          45.59          154.3          52.24           52.7
   0.01916               -20.4         -2.658          12.89          32.32         -8.772         -2.873          88.54          45.58          154.3          52.24          52.69
   0.03832               -20.4         -2.652          12.89          32.32         -8.773         -2.874           88.5          45.58          154.2          52.23          52.69
   0.05748               -20.4         -2.645           12.9          32.32         -8.775         -2.875          88.46          45.57          154.2          52.23          52.68
   0.07664               -20.4         -2.639           12.9          32.33         -8.776         -2.877          88.42          45.56          154.2          52.22          52.67
    0.0958               -20.4         -2.631           12.9          32.33         -8.778         -2.878          88.38          45.55          154.2          52.21          52.67
     0.115               -20.4         -2.624           12.9          32.34         -8.779         -2.879          88.34          45.55          154.1           52.2          52.66
    0.1341               -20.4         -2.615          12.91          32.34         -8.781         -2.881          88.29          45.54          154.1          52.19          52.65
    0.1533               -20.4         -2.607          12.91          32.35         -8.783         -2.883          88.24          45.53          154.1          52.18          52.64
    0.1724               -20.4         -2.597          12.92          32.35         -8.785         -2.884          88.18          45.51          154.1          52.17          52.64
    0.1916               -20.4         -2.587          12.92          32.36         -8.787         -2.886          88.12           45.5          154.0          52.16          52.63
    0.2108               -20.4         -2.576          12.92          32.37         -8.789         -2.888          88.06          45.49          154.0          52.15          52.62
    0.2299               -20.4         -2.564          12.93          32.37         -8.792         -2.891          87.99          45.48          154.0          52.14          52.61
    0.2491               -20.4         -2.552          12.93          32.38         -8.794         -2.893          87.91          45.46          153.9          52.13          52.59
    0.2683               -20.4         -2.538          12.94          32.39         -8.797         -2.895          87.83          45.45          153.9          52.11          52.58
    0.2874               -20.4         -2.523          12.95           32.4         -8.801         -2.898          87.74          45.43          153.8          52.09          52.57
    0.3066               -20.4         -2.507          12.95          32.41         -8.804         -2.901          87.65          45.41          153.8          52.08          52.55
    0.3257              -20.41         -2.489          12.96          32.42         -8.808         -2.905          87.54          45.39          153.7          52.06          52.54
    0.3449              -20.41          -2.47          12.97          32.43         -8.812         -2.908          87.43          45.37          153.6          52.04          52.52
    0.3641              -20.41         -2.448          12.98          32.44         -8.816         -2.912           87.3          45.34          153.6          52.02           52.5
    0.3832              -20.41         -2.425          12.99          32.46         -8.821         -2.916          87.17          45.32          153.5          51.99          52.48
    0.4024              -20.41           -2.4           13.0          32.47         -8.826         -2.921          87.02          45.29          153.4          51.96          52.46
    0.4215              -20.41         -2.371          13.01          32.49         -8.832         -2.927          86.85          45.25          153.3          51.93          52.43
    0.4407              -20.41          -2.34          13.02          32.51         -8.839         -2.932          86.67          45.22          153.2           51.9           52.4
    0.4599              -20.41         -2.305          13.04          32.53         -8.846         -2.939          86.46          45.18          153.1          51.86          52.37
     0.479              -20.41         -2.266          13.05          32.55         -8.854         -2.946          86.23          45.13          153.0          51.82          52.33
    0.4982              -20.41         -2.223          13.07          32.58         -8.864         -2.954          85.98          45.08          152.8          51.78          52.29
    0.5173              -20.42         -2.174          13.09          32.61         -8.874         -2.963          85.69          45.02          152.7          51.72          52.25
    0.5365              -20.42         -2.119          13.11          32.64         -8.886         -2.974          85.36          44.96          152.5          51.67           52.2
    0.5557              -20.42         -2.056          13.14          32.68         -8.899         -2.985          84.99          44.89          152.3           51.6          52.14
    0.5748              -20.42         -1.984          13.17          32.72         -8.914         -2.999          84.57           44.8          152.0          51.52          52.08
     0.594              -20.42         -1.902           13.2          32.77         -8.931         -3.014          84.09          44.71          151.8          51.44           52.0
    0.6131              -20.43         -1.807          13.24          32.83         -8.951         -3.032          83.53           44.6          151.5          51.33          51.92
    0.6323              -20.43         -1.697          13.29           32.9         -8.974         -3.052          82.88          44.47          151.1          51.22          51.81
    0.6515              -20.44         -1.568          13.34          32.98         -9.001         -3.076          82.12          44.32          150.7          51.08           51.7
    0.6706              -20.44         -1.416          13.41          33.07         -9.033         -3.105          81.22          44.15          150.2          50.92          51.56
    0.6898              -20.45         -1.235          13.48          33.18         -9.071         -3.138          80.16          43.94          149.6          50.73          51.39
    0.7089              -20.45         -1.018          13.57          33.31         -9.117         -3.179          78.88          43.69          148.9           50.5           51.2
    0.7281              -20.46         -0.756          13.68          33.47         -9.172         -3.228          77.34          43.38          148.0          50.22          50.96
    0.7473              -20.47        -0.4358          13.81          33.66          -9.24         -3.287          75.45          43.01          147.0          49.88          50.66
    0.7664              -20.49       -0.04049          13.98           33.9         -9.323         -3.361          73.12          42.55          145.7          49.46           50.3
    0.7856               -20.5         0.4524          14.18           34.2         -9.426         -3.453          70.22          41.98          144.1          48.93          49.85
    0.8048              -20.52          1.073          14.44          34.57         -9.557         -3.569          66.56          41.26          142.0          48.27          49.29
    0.8239              -20.55          1.863          14.77          35.05         -9.723         -3.716          61.92          40.35          139.4          47.43          48.57
    0.8431              -20.58          2.873          15.19          35.66         -9.936         -3.904          55.97          39.18          136.1          46.36          47.65
    0.8622              -20.62           4.17          15.73          36.45         -10.21         -4.146          48.33          37.68          131.9          44.98          46.47
    0.8814              -20.68          5.826          16.42          37.45         -10.56         -4.455          38.58          35.76          126.4          43.22          44.96
    0.9006              -20.75          7.908          17.29          38.71         -10.99         -4.843          26.32          33.35          119.6          41.01          43.06
    0.9197              -20.83          10.45          18.34          40.24         -11.53         -5.316          11.37          30.41          111.3          38.31          40.74
    0.9389              -20.93          13.39          19.57          42.02         -12.15         -5.865         -5.951           27.0          101.6          35.18          38.06
     0.958              -21.03          16.57          20.89          43.95         -12.82         -6.459         -24.71          23.31          91.17           31.8          35.16
    0.9772              -21.13          19.76          22.22          45.88         -13.49         -7.052         -43.46          19.62          80.73          28.41          32.25
    0.9964              -21.23           22.7          23.45          47.66         -14.11         -7.601         -60.79          16.21          71.08          25.28          29.57
     1.016              -21.31          25.24           24.5          49.19         -14.64         -8.074         -75.73          13.27          62.75          22.59          27.26
     1.035              -21.38          27.32          25.37          50.45         -15.08         -8.462         -87.99          10.86          55.92          20.37          25.36
     1.054              -21.44          28.98          26.06          51.45         -15.43         -8.771         -97.75          8.941          50.49          18.61          23.85
     1.073              -21.48          30.27           26.6          52.24          -15.7         -9.013         -105.4          7.439          46.23          17.23          22.67
     1.092              -21.51          31.28          27.02          52.85         -15.91         -9.201         -111.3          6.268          42.92          16.16          21.74
     1.111              -21.54          32.07          27.35          53.33         -16.08         -9.348         -116.0          5.354          40.33          15.32          21.02
      1.13              -21.56          32.69          27.61           53.7         -16.21         -9.464         -119.6          4.635          38.29          14.66          20.46
